<svg width="51" height="48" fill="none" xmlns="http://www.w3.org/2000/svg"><path d="M48.674 24c0 12.388-10.33 22.5-23.16 22.5S2.354 36.388 2.354 24s10.33-22.5 23.16-22.5 23.16 10.112 23.16 22.5z" fill="#fff" stroke="#63AB29" stroke-width="3"/><path d="M22.772 19.897c0 .848-.16 1.72-.48 2.616-.304.88-.712 1.768-1.224 2.664a26.098 26.098 0 0 1-1.68 2.64 63.938 63.938 0 0 1-1.872 2.424l-1.176 1.032v.096l1.536-.264h5.232v1.776h-9.552v-.696c.352-.368.776-.824 1.272-1.368a38.56 38.56 0 0 0 1.536-1.8 36.309 36.309 0 0 0 1.584-2.112c.528-.752 1-1.512 1.416-2.28a13.6 13.6 0 0 0 1.032-2.28c.256-.752.384-1.464.384-2.136 0-.784-.224-1.432-.672-1.944-.448-.528-1.128-.792-2.04-.792-.608 0-1.2.128-1.776.384-.576.24-1.072.52-1.488.84l-.792-1.368a6.211 6.211 0 0 1 1.992-1.128 7.352 7.352 0 0 1 2.472-.408c.688 0 1.296.104 1.824.312a3.62 3.62 0 0 1 1.344.84c.368.368.648.808.84 1.32.192.496.288 1.04.288 1.632zm14.95 7.824H34.89v5.16h-1.872v-5.16h-7.392v-.792l7.968-11.112h1.296V26.04h2.832v1.68zm-4.704-6.912l.24-1.968h-.072l-.84 1.632-3.384 4.584-1.152 1.176 1.68-.192h3.528v-5.232z" fill="#466964"/></svg>