<svg xmlns="http://www.w3.org/2000/svg" viewBox="0 0 40 40"><linearGradient id="a" gradientUnits="userSpaceOnUse" x1="20.184" y1="39.387" x2="20.184" y2=".613"><stop offset="0" stop-color="#50b09b"/><stop offset=".995" stop-color="#e18c6b"/></linearGradient><path fill="url(#a)" d="M32.7 39.4h-25c-3.8 0-6.9-3.1-6.9-6.9v-25C.8 3.7 3.9.6 7.7.6h25c3.8 0 6.9 3.1 6.9 6.9v25c0 3.8-3.1 6.9-6.9 6.9z"/><linearGradient id="b" gradientUnits="userSpaceOnUse" x1="34.316" y1="20.58" x2="4.914" y2="20.529" gradientTransform="rotate(89.9 19.622 20.562)"><stop offset="0" stop-color="#50b09b"/><stop offset=".995" stop-color="#e18c6b"/></linearGradient><path fill="url(#b)" stroke="#FFF" stroke-width="2" stroke-miterlimit="10" d="M28.4 33.3c1.6 1.2 3.3 1.9 4.5 1.9.4 0 .7-.1.9-.2 0 0 .1-.1.2-.1.1-.1.1-.1.1-.2.2-.2.2-.5.2-.9 0-1.2-.7-2.9-1.9-4.5-1-1.3-2.4-2.6-4.3-4.4-.3-.3-.7-.6-1-1l1-3.5h0c.2.2.3.2.5.2s.4-.1.6-.2l.6-.6c.2-.2.2-.3.2-.6 0-.2-.1-.4-.2-.6l-1-.9.2-.5c.1.1.3.2.5.2s.4-.1.6-.2l.6-.6c.3-.2.3-.4.3-.6 0-.2-.1-.4-.2-.5l-.9-.9L31 11v-.3c0-.3-.1-.5-.3-.7l-1.3-1.3c-.1-.1-.3-.2-.5-.2-.3 0-.5.1-.6.4l-4.2 7.5s-.1.1-.1.2l-2.1 2.1c-2.1-2-4.2-3.8-5.9-5.2-.2-.1-.3-.3-.5-.4l.5-5.6v-.1c0-.3-.1-.5-.3-.7l-.6-.6c-.1-.1-.3-.2-.5-.2-.3 0-.5.2-.7.4L12 10.4s-.1.1-.1.2l-.3.3c-.3-.1-.6-.2-.8-.2-.3 0-.6.1-.8.3h0c-.2.2-.3.4-.3.8 0 .2.1.5.2.8l-.3.3s-.1.1-.2.1l-4.1 1.9c-.3.1-.4.4-.4.7h0c0 .2.1.4.2.5l.6.6c.2.2.5.3.7.3h.1l5.8-.5c.1.2.3.3.4.5 1.4 1.8 3.2 3.8 5.2 5.9L15.7 25s-.1.1-.2.1L8 29.3c-.2.1-.4.4-.4.6 0 .2.1.4.2.5l1.3 1.3c.3.2.5.3.7.3h.3l3.6-1.1.9.9c.1.2.3.2.6.2.2 0 .4-.1.6-.2l.6-.6c.2-.2.2-.3.2-.6 0-.2-.1-.3-.2-.5l.5-.2 1 .9c.2.2.3.2.6.2s.4-.1.6-.2l.6-.6c.2-.2.2-.3.2-.6 0-.2-.1-.4-.2-.6h0l3.5-1.1c.3.4.7.7 1 1 1.6 2.1 2.9 3.5 4.2 4.4z"/></svg>