<svg xmlns="http://www.w3.org/2000/svg" viewBox="0 0 40 40"><linearGradient id="a" gradientUnits="userSpaceOnUse" x1="20.184" y1="39.387" x2="20.184" y2=".613"><stop offset="0" stop-color="#50b09b"/><stop offset=".995" stop-color="#e18c6b"/></linearGradient><path fill="url(#a)" d="M32.7 39.4h-25c-3.8 0-6.9-3.1-6.9-6.9v-25C.8 3.7 3.9.6 7.7.6h25c3.8 0 6.9 3.1 6.9 6.9v25c0 3.8-3.1 6.9-6.9 6.9z"/><linearGradient id="b" gradientUnits="userSpaceOnUse" x1="19.622" y1="35.279" x2="19.622" y2="5.845"><stop offset="0" stop-color="#50b09b"/><stop offset=".995" stop-color="#e18c6b"/></linearGradient><path fill="url(#b)" stroke="#FFF" stroke-width="2" stroke-miterlimit="10" d="M32.4 11.8c1.2-1.6 1.9-3.3 1.9-4.5 0-.4-.1-.7-.2-.9 0 0-.1-.1-.1-.2-.1-.1-.1-.1-.2-.1-.2-.2-.5-.2-.9-.2-1.2 0-2.9.7-4.5 1.9-1.3 1-2.6 2.4-4.4 4.3-.3.3-.6.7-1 1l-3.5-1h0c.2-.2.2-.3.2-.5s-.1-.4-.2-.6l-.6-.6c-.2-.2-.3-.2-.6-.2-.2 0-.4.1-.6.2l-.9.9-.5-.2c.1-.1.2-.3.2-.5s-.1-.4-.2-.6l-.6-.6c-.1-.2-.3-.2-.6-.2-.2 0-.4.1-.5.2l-.9.9-3.6-1.1h-.3c-.3 0-.5.1-.7.3l-1.3 1.3c-.1.1-.2.3-.2.5 0 .3.1.5.4.6l7.5 4.2s.1.1.2.1l2.1 2.1c-2 2.1-3.8 4.1-5.2 5.9-.1.2-.3.3-.4.5l-5.8-.5h-.1c-.3 0-.5.1-.7.3l-.5.5c-.1.1-.2.3-.2.5 0 .3.2.5.4.7l4.1 1.9s.1.1.2.1l.3.3c-.1.3-.2.6-.2.8 0 .3.1.6.3.8h0c.2.2.4.3.8.3.2 0 .5-.1.8-.2l.3.3s.1.1.1.2l1.9 4.1c.1.3.4.4.7.4h0c.2 0 .4-.1.5-.2l.6-.6c.2-.2.3-.4.3-.7v-.1l-.5-5.8c.2-.1.3-.3.5-.4 1.8-1.4 3.8-3.2 5.9-5.2l2.1 2.1s.1.1.1.2l4.2 7.5c.1.2.4.4.6.4.2 0 .4-.1.5-.2l1.3-1.3c.2-.2.3-.4.3-.7v-.3l-1.1-3.6.9-.9c.2-.1.2-.3.2-.6 0-.2-.1-.4-.2-.6l-.6-.6c-.2-.2-.3-.2-.6-.2-.2 0-.3.1-.5.2l-.1-.3.9-.9c.2-.2.2-.3.2-.6 0-.2-.1-.4-.2-.6l-.6-.6c-.2-.2-.3-.2-.6-.2-.2 0-.4.1-.6.2h0l-1-3.5c.4-.3.7-.7 1-1 2-1.7 3.3-3 4.3-4.3z"/></svg>