<svg xmlns="http://www.w3.org/2000/svg" viewBox="0 0 40 40"><linearGradient id="a" gradientUnits="userSpaceOnUse" x1="626.485" y1="-981.675" x2="626.485" y2="289.642" gradientTransform="matrix(.03012 0 0 -.03012 .97 9.042)"><stop offset="0" stop-color="#50b09b"/><stop offset="1" stop-color="#e18c6b"/></linearGradient><path fill="url(#a)" d="M32.2 38.6H7.5c-3.8 0-6.8-3-6.8-6.8V7.1C.7 3.3 3.7.3 7.5.3h24.7c3.8 0 6.8 3 6.8 6.8v24.7c0 3.8-3.1 6.8-6.8 6.8z"/><path fill="none" stroke="#FFF" stroke-width="2" stroke-miterlimit="10" d="M29.4 6.4h0c-.4 0-.7-.3-.7-.7v-.9c0-.4-.3-.7-.6-.7h-.9c-.3 0-.6.3-.6.7v.9c0 .4-.3.7-.6.7H13.1c-.3 0-.6-.3-.6-.7v-.9c0-.4-.3-.7-.6-.7h-1c-.3 0-.6.3-.6.7v.9c0 .4-.3.7-.6.7h0c-2.1 0-3.8 1.8-3.8 4v18.4c0 2.2 1.7 4 3.8 4h19.8c2.1 0 3.8-1.8 3.8-4V10.4c0-2.2-1.7-4-3.9-4zm1.7 22.4c0 1-.8 1.8-1.7 1.8H9.6c-.9 0-1.7-.8-1.7-1.8V15.3c0-.4.3-.7.6-.7h21.9c.3 0 .6.3.6.7l.1 13.5h0zm-.6-16.4H8.6c-.3 0-.6-.3-.6-.7v-1.4c0-1 .8-1.8 1.7-1.8h0c.3 0 .6.3.6.7v.9c0 .4.3.7.6.7h.9c.3 0 .6-.3.6-.7v-.8c0-.4.3-.7.6-.7h13c.3 0 .6.3.6.7v.9c0 .4.3.7.6.7h.9c.3 0 .6-.3.6-.7v-.9c0-.4.3-.7.6-.7h0c.9 0 1.7.8 1.7 1.8v1.4c.1.3-.1.6-.5.6z"/><path fill="#FFF" d="M13 18.1h.4c.3 0 .6.3.6.6v.4c0 .3-.3.6-.6.6H13c-.3 0-.6-.3-.6-.6v-.4c0-.3.3-.6.6-.6zm3.3 0h.4c.3 0 .6.3.6.6v.4c0 .3-.3.6-.6.6h-.4c-.3 0-.6-.3-.6-.6v-.4c0-.3.3-.6.6-.6zm3.3 0h.4c.3 0 .6.3.6.6v.4c0 .3-.3.6-.6.6h-.4c-.3 0-.6-.3-.6-.6v-.4c0-.3.3-.6.6-.6zm3.4 0h.4c.3 0 .6.3.6.6v.4c0 .3-.3.6-.6.6H23c-.3 0-.6-.3-.6-.6v-.4c-.1-.3.2-.6.6-.6zm3.3 0h.4c.3 0 .6.3.6.6v.4c0 .3-.3.6-.6.6h-.4c-.3 0-.6-.3-.6-.6v-.4c-.1-.3.2-.6.6-.6zm-.2 3.3h.4c.3 0 .6.3.6.6v.4c0 .3-.3.6-.6.6h-.4c-.3 0-.6-.3-.6-.6V22c-.1-.3.2-.6.6-.6zm-3.1-.2h.4c.3 0 .6.3.6.6v.4c0 .3-.3.6-.6.6H23c-.3 0-.6-.3-.6-.6v-.4c-.1-.3.2-.6.6-.6zm0 3.5h.4c.3 0 .6.3.6.6v.4c0 .3-.3.6-.6.6H23c-.3 0-.6-.3-.6-.6v-.4c-.1-.3.2-.6.6-.6zm-3.4-3.3h.4c.3 0 .6.3.6.6v.4c0 .3-.3.6-.6.6h-.4c-.3 0-.6-.3-.6-.6V22c0-.3.3-.6.6-.6zm0 3.3h.4c.3 0 .6.3.6.6v.4c0 .3-.3.6-.6.6h-.4c-.3 0-.6-.3-.6-.6v-.4c0-.3.3-.6.6-.6zm-3.3-3.3h.4c.3 0 .6.3.6.6v.4c0 .3-.3.6-.6.6h-.4c-.3 0-.6-.3-.6-.6V22c0-.3.3-.6.6-.6zm0 3.3h.4c.3 0 .6.3.6.6v.4c0 .3-.3.6-.6.6h-.4c-.3 0-.6-.3-.6-.6v-.4c0-.3.3-.6.6-.6zM13 21.4h.4c.3 0 .6.3.6.6v.4c0 .3-.3.6-.6.6H13c-.3 0-.6-.3-.6-.6V22c0-.3.3-.6.6-.6zm0 3.3h.4c.3 0 .6.3.6.6v.4c0 .3-.3.6-.6.6H13c-.3 0-.6-.3-.6-.6v-.4c0-.3.3-.6.6-.6z"/></svg>