<svg width="327" height="136" viewBox="0 0 327 136" fill="none" xmlns="http://www.w3.org/2000/svg">
<path d="M124.08 53.2756L72.5819 0.687988H60.0021L94.2034 62.6943L83.5892 65.4414L86.3411 72.5054L26.5871 89.773L41.5256 92.5201L101.673 78.7845C101.673 78.7845 128.798 89.3805 136.267 90.9503C143.736 92.5201 157.889 93.305 157.889 93.305L3 123.523L23.8353 126.663L83.5892 118.814L96.9553 122.346C96.9553 122.346 94.9897 127.055 98.9208 130.195L116.218 134.512C116.218 134.512 127.225 131.765 127.225 125.093C127.225 118.421 114.646 117.244 112.287 117.244L108.749 114.497L147.274 106.648L161.427 110.965C161.427 110.965 158.675 115.674 161.427 117.637C164.178 119.599 182.262 122.346 182.262 122.346C182.262 122.346 191.697 117.637 190.911 111.357C190.124 105.078 181.083 102.724 181.083 102.724H170.075L183.048 99.5841C183.048 99.5841 202.311 98.7992 212.532 96.837C223.146 94.8748 241.623 89.3805 241.623 89.3805C241.623 89.3805 291.156 84.2788 302.556 79.5694C317.495 73.6828 301.77 63.4792 301.77 63.4792L293.514 57.2001L322.998 44.6418L297.446 46.9965L277.79 52.4907C277.79 52.4907 273.072 48.9587 260.492 48.9587C247.913 48.9587 128.798 57.5925 128.798 57.5925C128.798 57.5925 126.439 56.0227 124.08 53.2756Z" fill="#03c1a8" stroke="white" stroke-miterlimit="10"/>
</svg>
