<svg width="90" height="28" fill="none" xmlns="http://www.w3.org/2000/svg"><path d="M13.062 21.677H.642v-21h2.49v18.78h9.93v2.22zm3.648-21h2.49v21h-2.49v-21zm26.73 26.13c-.48.14-.95.23-1.41.27-.46.06-.92.09-1.38.09-1 0-1.98-.11-2.94-.33-.94-.2-1.86-.43-2.76-.69-.88-.24-1.73-.47-2.55-.69-.82-.2-1.6-.3-2.34-.3-.48 0-.94.06-1.38.18v-2.19c.28-.06.55-.11.81-.15.26-.04.53-.06.81-.06.84 0 1.67.1 2.49.3.84.22 1.69.45 2.55.69.86.26 1.74.49 2.64.69.9.22 1.85.33 2.85.33.88 0 1.75-.1 2.61-.3v2.16zM24 11.176c0-3.5.74-6.18 2.22-8.04 1.48-1.88 3.59-2.82 6.33-2.82 1.48 0 2.76.26 3.84.78s1.97 1.26 2.67 2.22c.72.94 1.25 2.08 1.59 3.42.34 1.32.51 2.8.51 4.44 0 3.5-.75 6.19-2.25 8.07-1.48 1.86-3.6 2.79-6.36 2.79-1.46 0-2.73-.26-3.81-.78a7.458 7.458 0 0 1-2.67-2.19c-.7-.96-1.22-2.1-1.56-3.42-.34-1.34-.51-2.83-.51-4.47zm2.64 0c0 1.16.11 2.26.33 3.3.24 1.04.6 1.96 1.08 2.76.48.78 1.09 1.41 1.83 1.89.76.46 1.65.69 2.67.69 1.86 0 3.32-.7 4.38-2.1 1.06-1.42 1.59-3.6 1.59-6.54 0-1.14-.12-2.23-.36-3.27-.22-1.06-.58-1.98-1.08-2.76-.48-.8-1.1-1.43-1.86-1.89-.74-.48-1.63-.72-2.67-.72-1.84 0-3.29.71-4.35 2.13-1.04 1.4-1.56 3.57-1.56 6.51zM45.378.887c.76-.18 1.58-.3 2.46-.36.88-.06 1.75-.09 2.61-.09.92 0 1.85.09 2.79.27.96.18 1.83.51 2.61.99a5.45 5.45 0 0 1 1.89 1.98c.5.84.75 1.91.75 3.21 0 1.28-.23 2.36-.69 3.24-.46.88-1.07 1.6-1.83 2.16-.76.54-1.63.93-2.61 1.17-.98.24-1.99.36-3.03.36h-1.23l-.72-.06c-.24-.02-.41-.04-.51-.06v7.98h-2.49V.887zm5.13 1.71c-.52 0-1.02.01-1.5.03-.48.02-.86.07-1.14.15v8.7c.1.04.26.07.48.09.22 0 .45.01.69.03h1.17c.68 0 1.35-.06 2.01-.18.68-.14 1.29-.38 1.83-.72.54-.34.97-.82 1.29-1.44.34-.62.51-1.41.51-2.37 0-.82-.16-1.5-.48-2.04-.3-.56-.71-1-1.23-1.32a4.85 4.85 0 0 0-1.71-.72 8.96 8.96 0 0 0-1.92-.21zm19.714 13.26h-7.74l-2.1 5.82h-2.46l7.95-21.33h1.14l7.98 21.33h-2.61l-2.16-5.82zm-6.93-2.16h6.18l-2.34-6.39-.75-3.18h-.03l-.75 3.24-2.31 6.33zm17.058-.36L73.42.676h2.91l4.92 9.18.51 1.83h.03l.54-1.89 4.71-9.12h2.67l-6.87 12.63v8.37h-2.49v-8.34z" fill="#63AB29"/></svg>