<svg xmlns="http://www.w3.org/2000/svg" viewBox="0 0 297.6 419.5"><path fill="#03C1A8" d="M271.3 280.7c1-2.5 2-4.5 2-6.9 0-1 0-2-.5-2.5v-4.5c0-1.5-.5-3.5-.5-5 0-1 0-2 .5-3V249c-2-2.5-2-5.5-.5-8.4.5-1 .5-4.5.5-6.4v-62.7c0-2-.5-4 0-6.4v-29.8c-1.5-3-1.5-6-1-9.4 0-1-.5-2.5-.5-3.5-3.5-8.4-11.9-14.4-21.3-14.4h-63v-5c0-13.4-10.9-23.8-23.8-23.8s-24.3 10.9-24.3 23.8v5h-58c-12.9 0-23.3 10.4-23.3 23.3v81.9c0 3 .5 6.4 0 9.4v48.6c0 12.9 10.4 23.3 23.3 23.3H250c9.4.6 17.9-5.4 21.3-13.8zm-123-177.6c0-7.9 6.4-14.4 14.4-14.4s14.4 6.4 14.4 14.4v5h-28.8v-5zm115.1 168.7c0 7.4-6 13.9-13.9 13.9H80.9c-7.4 0-13.9-6-13.9-13.9V131.4c0-7.4 6-13.9 13.9-13.9H250c7.4 0 13.9 6 13.9 13.9v140.4h-.5z"/><path fill="#03C1A8" d="M273.3 261.4c0 10.9-2 19.3-4.5 19.3s-4.5-8.9-4.5-19.3v-123c0-10.9 2-19.3 4.5-19.3s4.5 8.9 4.5 19.3v123z"/><path d="M112.9 137.5l105 125m0-121l-105 125" fill="#03C1A8" stroke="#03C1A8" stroke-width="9" stroke-miterlimit="10"/></svg>