<svg width="39" height="62" fill="none" xmlns="http://www.w3.org/2000/svg"><path d="M38.9 29.413v-11.5c0-2.7-2.2-4.9-4.9-4.9h-9v-5.2h-2v5.3h-6v-5.3h-2v5.3H4.9c-2.7 0-4.9 2.2-4.9 4.9v35.2c0 2 1.2 3.7 3 4.5v.7c0 1.5 1.2 2.7 2.7 2.7h5.6c1.5 0 2.7-1.2 2.7-2.7v-.4h11v.3c0 1.5 1.2 2.7 2.7 2.7h5.6c1.5 0 2.7-1.2 2.7-2.7v-.7c1.8-.7 3-2.5 3-4.5v-11.7c-.1-.2-.1-.4-.1-.6 0-1.3.1-2.6.1-3.8v-7.3c-.1-.1-.1-.2-.1-.3zM12 58.313c0 .4-.3.7-.7.7H5.7c-.4 0-.7-.3-.7-.7v-.3h7v.3zm22 0c0 .4-.3.7-.7.7h-5.6c-.4 0-.7-.3-.7-.7v-.3h7v.3zm2.9-5.2c0 1.6-1.3 2.9-2.9 2.9H4.9c-1.6 0-2.9-1.3-2.9-2.9v-35.2c0-1.6 1.3-2.9 2.9-2.9h29.2c1.6 0 2.9 1.3 2.9 2.9v35.2h-.1z" fill="#FF8B5D"/><path d="M24 .913c.6 0 1 .3 1 .7v8.1c0 .4-.5.7-1 .7-.6 0-1-.3-1-.7v-8.1c0-.3.4-.7 1-.7zm-8.1.2c-.6 0-1 .5-1 1v7c0 .4.5.8 1 .8s1-.4 1-.8v-7c.1-.6-.4-1-1-1z" fill="#FF8B5D"/><path d="M14.9 2.013c0 .6.5 1 1.1 1h7.6c.5 0 .9-.5.9-1s-.4-1-.9-1H16c-.6-.1-1.1.4-1.1 1z" fill="#FF8B5D"/><path d="M14.9 1.013c0 .6.5 1 1.2 1h8c.5 0 .9-.5.9-1s-.4-1-.9-1h-8c-.7-.1-1.2.4-1.2 1 0-.1 0-.1 0 0z" fill="#FF8B5D"/><path d="M14.9 1.713c0 .6.5 1 1.2 1h8c.5 0 .9-.5.9-1s-.4-1-.9-1h-8c-.7 0-1.2.4-1.2 1z" fill="#FF8B5D"/><path d="M16 10.113c.6 0 1-.5 1-1.2v-8c0-.5-.5-.9-1-.9s-1 .4-1 .9v8c-.1.7.4 1.2 1 1.2zm8 0c.6 0 1-.5 1-1.2v-8c0-.5-.5-.9-1-.9s-1 .4-1 .9v8c0 .7.4 1.2 1 1.2z" fill="#FF8B5D"/></svg>