<svg xmlns="http://www.w3.org/2000/svg" viewBox="0 0 297.6 419.5"><g fill="#FF8B5D"><path d="M247.5 201.8v-57c0-13.4-10.9-24.3-24.3-24.3h-44.6V94.7h-9.9V121h-29.8V94.7H129V121H78.9c-13.4 0-24.3 10.9-24.3 24.3v174.6c0 9.9 6 18.4 14.9 22.3v3.5c0 7.4 6 13.4 13.4 13.4h27.8c7.4 0 13.4-6 13.4-13.4v-2h54.6v1.5c0 7.4 6 13.4 13.4 13.4h27.8c7.4 0 13.4-6 13.4-13.4v-3.5c8.9-3.5 14.9-12.4 14.9-22.3v-58c-.5-1-.5-2-.5-3 0-6.4.5-12.9.5-18.9v-36.2c-.7-.5-.7-1-.7-1.5zM114.1 345.2c0 2-1.5 3.5-3.5 3.5H82.8c-2 0-3.5-1.5-3.5-3.5v-1.5H114v1.5zm109.1 0c0 2-1.5 3.5-3.5 3.5H192c-2 0-3.5-1.5-3.5-3.5v-1.5h34.7v1.5zm14.4-25.8c0 7.9-6.4 14.4-14.4 14.4H78.9c-7.9 0-14.4-6.4-14.4-14.4V144.8c0-7.9 6.4-14.4 14.4-14.4h144.9c7.9 0 14.4 6.4 14.4 14.4v174.6h-.6z"/><path d="M173.6 60.4c3 0 5 1.5 5 3.5v40.2c0 2-2.5 3.5-5 3.5-3 0-5-1.5-5-3.5V63.9c.1-1.5 2-3.5 5-3.5zm-40.2 1c-3 0-5 2.5-5 5v34.7c0 2 2.5 4 5 4s5-2 5-4V66.4c.5-3-2-5-5-5z"/><path d="M128.5 65.9c0 3 2.5 5 5.5 5h37.7c2.5 0 4.5-2.5 4.5-5s-2-5-4.5-5H134c-3-.5-5.5 2-5.5 5z"/><path d="M128.5 60.9c0 3 2.5 5 6 5h39.7c2.5 0 4.5-2.5 4.5-5s-2-5-4.5-5h-39.7c-3.5-.4-6 2.1-6 5 0-.5 0-.5 0 0z"/><path d="M128.5 64.4c0 3 2.5 5 6 5h39.7c2.5 0 4.5-2.5 4.5-5s-2-5-4.5-5h-39.7c-3.5.1-6 2-6 5z"/><path d="M133.9 106.1c3 0 5-2.5 5-6V60.4c0-2.5-2.5-4.5-5-4.5s-5 2-5 4.5v39.7c-.4 3.5 2.1 6 5 6zm39.7 0c3 0 5-2.5 5-6V60.4c0-2.5-2.5-4.5-5-4.5s-5 2-5 4.5v39.7c.1 3.5 2 6 5 6z"/></g><path fill="none" stroke="#FF8B5D" stroke-width="9" stroke-miterlimit="10" d="M98 165.5l105 125m0-121l-105 125"/></svg>