<svg width="112" height="67" fill="none" xmlns="http://www.w3.org/2000/svg"><rect x=".5" y=".5" width="111" height="66" rx="4.5" fill="#fff" stroke="#FF8B5D"/><path d="M95.56 34c0 12.656-10.687 23-24.044 23-13.231 0-24.044-10.344-24.044-23s10.686-23 23.916-23C84.873 11 95.56 21.344 95.56 34z" fill="#FFB600"/><path d="M71.516 11c13.23 0 24.044 10.344 24.044 23S84.873 57 71.516 57c-13.231 0-24.044-10.344-24.044-23" fill="#F7981D"/><path d="M71.516 11c13.23 0 24.044 10.344 24.044 23S84.874 57 71.516 57" fill="#FF8500"/><path d="M39.202 11c-13.103.122-23.79 10.344-23.79 23S26.1 57 39.458 57c6.233 0 11.831-2.312 16.156-5.963.891-.73 1.654-1.582 2.418-2.434H53.07a28.162 28.162 0 0 1-1.78-2.312h8.523a15.393 15.393 0 0 0 1.399-2.434H49.889c-.382-.73-.764-1.582-1.018-2.434H62.1c.764-2.312 1.273-4.746 1.273-7.301 0-1.704-.255-3.286-.51-4.868H48.109c.127-.852.381-1.582.636-2.434h13.23c-.254-.852-.636-1.704-1.017-2.434H49.76c.382-.852.891-1.582 1.4-2.434h8.523a11.629 11.629 0 0 0-1.908-2.434H53.07a21.248 21.248 0 0 1 2.417-2.312c-4.198-3.772-9.923-5.963-16.156-5.963 0-.243 0-.243-.128-.243z" fill="#FF5050"/><path d="M15.413 34c0 12.656 10.686 23 24.044 23 6.233 0 11.831-2.312 16.156-5.963.891-.73 1.654-1.582 2.418-2.434h-4.962a28.162 28.162 0 0 1-1.78-2.312h8.523a15.392 15.392 0 0 0 1.399-2.434H49.889c-.382-.73-.764-1.582-1.018-2.434H62.1c.764-2.312 1.273-4.746 1.273-7.301 0-1.704-.255-3.286-.51-4.868H48.109c.127-.852.381-1.582.636-2.434h13.23c-.254-.852-.636-1.704-1.017-2.434H49.76c.382-.852.891-1.582 1.4-2.434h8.523a11.654 11.654 0 0 0-1.908-2.434H53.07a21.238 21.238 0 0 1 2.417-2.312c-4.198-3.772-9.923-5.963-16.156-5.963h-.128" fill="#E52836"/><path d="M39.457 57c6.233 0 11.831-2.312 16.156-5.963.89-.73 1.654-1.582 2.418-2.434h-4.962a28.186 28.186 0 0 1-1.781-2.312h8.524a15.408 15.408 0 0 0 1.399-2.434H49.889c-.382-.73-.764-1.582-1.018-2.434H62.1c.764-2.312 1.273-4.746 1.273-7.301 0-1.704-.255-3.286-.51-4.868H48.109c.127-.852.381-1.582.636-2.434h13.23c-.254-.852-.636-1.704-1.017-2.434H49.76c.382-.852.89-1.582 1.4-2.434h8.523a11.654 11.654 0 0 0-1.908-2.434H53.07a21.238 21.238 0 0 1 2.417-2.312c-4.198-3.772-9.923-5.963-16.156-5.963h-.128" fill="#CB2026"/><path d="M47.98 39.841l.382-2.069c-.127 0-.382.122-.636.122-.89 0-1.018-.486-.89-.73l.763-4.26h1.399l.382-2.311h-1.273l.255-1.46h-2.544s-1.527 8.031-1.527 9.005c0 1.46.89 2.068 2.036 2.068.763 0 1.399-.243 1.653-.365zm.89-3.894c0 3.408 2.418 4.26 4.453 4.26 1.909 0 2.672-.366 2.672-.366l.509-2.312s-1.4.609-2.672.609c-2.799 0-2.29-1.947-2.29-1.947h5.216s.382-1.583.382-2.19c0-1.583-.89-3.53-3.69-3.53-2.671-.243-4.58 2.434-4.58 5.476zm4.453-3.529c1.4 0 1.145 1.582 1.145 1.704H51.67c0-.122.255-1.704 1.654-1.704zm16.157 7.423l.509-2.677s-1.272.609-2.163.609c-1.78 0-2.544-1.34-2.544-2.8 0-2.92 1.526-4.502 3.308-4.502 1.272 0 2.29.73 2.29.73l.381-2.555s-1.526-.609-2.926-.609c-2.926 0-5.852 2.434-5.852 7.058 0 3.043 1.527 5.111 4.58 5.111 1.018 0 2.417-.365 2.417-.365zm-35.494-9.614c-1.78 0-3.053.487-3.053.487l-.381 2.07s1.145-.488 2.798-.488c.89 0 1.654.122 1.654.852 0 .487-.127.609-.127.609h-1.145c-2.163 0-4.58.852-4.58 3.65 0 2.19 1.527 2.678 2.417 2.678 1.781 0 2.545-1.096 2.672-1.096l-.127.974h2.29l1.017-6.693c0-2.92-2.544-3.043-3.435-3.043zm.51 5.477c0 .365-.255 2.312-1.782 2.312-.763 0-1.017-.609-1.017-.974 0-.608.381-1.46 2.29-1.46.381.122.508.122.508.122zm5.342 4.381c.636 0 3.817.121 3.817-3.164 0-3.043-3.053-2.434-3.053-3.651 0-.609.509-.852 1.399-.852.382 0 1.781.122 1.781.122l.382-2.19s-.89-.244-2.417-.244c-1.909 0-3.817.73-3.817 3.164 0 2.799 3.18 2.555 3.18 3.65 0 .73-.89.853-1.526.853-1.145 0-2.29-.366-2.29-.366l-.382 2.191c.128.243.764.487 2.926.487zm50.76-11.805l-.509 3.286s-1.018-1.217-2.417-1.217c-2.29 0-4.325 2.677-4.325 5.842 0 1.947 1.017 4.015 3.18 4.015 1.527 0 2.417-.973 2.417-.973l-.127.852h2.544l1.909-11.683-2.672-.122zm-1.145 6.45c0 1.339-.636 3.043-2.035 3.043-.89 0-1.4-.73-1.4-1.948 0-1.947.89-3.164 2.036-3.164.89 0 1.4.609 1.4 2.07zM20.12 39.963l1.527-8.762.254 8.762h1.781l3.308-8.762-1.4 8.762h2.672l2.035-11.683H26.1l-2.544 7.18-.127-7.18h-3.69l-2.035 11.683h2.417zm39.437 0c.763-4.016.89-7.302 2.672-6.693.254-1.582.636-2.19.89-2.8h-.509c-1.145 0-2.035 1.461-2.035 1.461l.254-1.338h-2.417l-1.654 9.492h2.8v-.122zm15.775-9.736c-1.78 0-3.053.487-3.053.487l-.382 2.07s1.145-.488 2.8-.488c.89 0 1.653.122 1.653.852 0 .487-.127.609-.127.609h-1.145c-2.163 0-4.58.852-4.58 3.65 0 2.19 1.526 2.678 2.417 2.678 1.781 0 2.544-1.096 2.672-1.096l-.128.974h2.29l1.018-6.693c.127-2.92-2.544-3.043-3.435-3.043zm.636 5.477c0 .365-.254 2.312-1.78 2.312-.764 0-1.019-.609-1.019-.974 0-.608.382-1.46 2.29-1.46.382.122.382.122.51.122zm4.962 4.259c.763-4.016.89-7.302 2.671-6.693.255-1.582.636-2.19.89-2.8h-.508c-1.145 0-2.035 1.461-2.035 1.461l.254-1.338h-2.417l-1.654 9.492h2.799v-.122z" fill="#fff"/><path d="M44.037 38.138c0 1.46.89 2.068 2.035 2.068.89 0 1.654-.243 1.908-.365l.382-2.069c-.127 0-.382.122-.636.122-.89 0-1.018-.486-.89-.73l.763-4.26h1.4l.38-2.311h-1.271l.254-1.46m1.781 6.814c0 3.408 1.145 4.26 3.18 4.26 1.909 0 2.672-.366 2.672-.366l.509-2.312s-1.4.609-2.671.609c-2.8 0-2.29-1.947-2.29-1.947h5.215s.382-1.583.382-2.19c0-1.583-.89-3.53-3.69-3.53-2.67-.243-3.307 2.434-3.307 5.476zm3.18-3.529c1.4 0 1.654 1.582 1.654 1.704H51.67c0-.122.254-1.704 1.654-1.704zm16.157 7.423l.509-2.677s-1.272.609-2.163.609c-1.78 0-2.544-1.34-2.544-2.8 0-2.92 1.526-4.502 3.308-4.502 1.272 0 2.29.73 2.29.73l.381-2.555s-1.526-.609-2.926-.609c-2.926 0-4.58 2.434-4.58 7.058 0 3.043.255 5.111 3.308 5.111 1.018 0 2.417-.365 2.417-.365zm-38.928-6.936s1.145-.487 2.798-.487c.89 0 1.654.122 1.654.852 0 .487-.127.608-.127.608h-1.145c-2.163 0-4.58.852-4.58 3.651 0 2.19 1.527 2.677 2.417 2.677 1.781 0 2.545-1.095 2.672-1.095l-.127.974h2.29l1.017-6.693c0-2.8-2.544-2.921-3.562-2.921l-3.308 2.434zm5.215 2.799c0 .365-1.526 2.312-3.053 2.312-.763 0-1.017-.608-1.017-.974 0-.608.381-1.46 2.29-1.46.381.122 1.78.122 1.78.122zm1.273 4.137s.763.244 2.925.244c.637 0 3.817.121 3.817-3.164 0-3.043-3.053-2.434-3.053-3.651 0-.609.509-.852 1.4-.852.38 0 1.78.122 1.78.122l.382-2.19s-.89-.244-2.417-.244c-1.909 0-2.544.73-2.544 3.164 0 2.799 1.908 2.555 1.908 3.65 0 .73-.89.853-1.527.853m50.379-6.207s-1.019-1.217-2.418-1.217c-2.29 0-3.053 2.678-3.053 5.842 0 1.947-.255 4.015 1.908 4.015 1.527 0 2.417-.973 2.417-.973l-.127.852h2.544l1.909-11.683-3.18 3.164zm-.128 3.164c0 1.339-1.145 3.043-2.544 3.043-.89 0-1.4-.73-1.4-1.948 0-1.947.89-3.164 2.036-3.164.89 0 1.908.609 1.908 2.07zM20.12 39.963l1.527-8.762.254 8.762h1.781l3.308-8.762-1.4 8.762h2.672l2.035-11.683h-3.18l-3.562 7.18-.127-7.18h-1.4l-4.325 11.683h2.417zm36.766 0h2.671c.763-4.016.89-7.302 2.672-6.693.254-1.582.636-2.19.89-2.8h-.509c-1.145 0-2.035 1.461-2.035 1.461l.254-1.338m11.068 2.312s1.145-.487 2.8-.487c.89 0 1.653.122 1.653.852 0 .487-.127.608-.127.608h-1.145c-2.163 0-4.58.852-4.58 3.651 0 2.19 1.526 2.677 2.417 2.677 1.781 0 2.544-1.095 2.672-1.095l-.128.974h2.29l1.018-6.693c0-2.8-2.544-2.921-3.562-2.921l-3.308 2.434zm5.216 2.799c0 .365-1.526 2.312-3.053 2.312-.763 0-1.018-.608-1.018-.974 0-.608.382-1.46 2.29-1.46.509.122 1.781.122 1.781.122zm1.145 4.259h2.672c.763-4.016.89-7.302 2.671-6.693.255-1.582.636-2.19.89-2.8h-.508c-1.145 0-2.035 1.461-2.035 1.461l.254-1.338" fill="#DCE5E5"/></svg>