<svg xmlns="http://www.w3.org/2000/svg" viewBox="0 0 56 56"><linearGradient id="a" gradientUnits="userSpaceOnUse" x1="29.929" y1="-17.038" x2="29.929" y2="57.807" gradientTransform="matrix(.9333 0 0 -.9333 .067 54.2)"><stop offset="0" stop-color="#e18c6b"/><stop offset="1" stop-color="#fff"/></linearGradient><path fill="url(#a)" d="M45.7 49.2c1.2-.9.3-.5.6-.6l2.4-2.3c-1.5 1.2-2.7 2.4-2.4 2.3.3-.3 1.3-1.2 1.5-1.3 4.9-5 7.9-11.9 7.9-19.4C55.7 12.7 43.3.2 28 .2S.3 12.7.3 27.9 12.7 55.7 28 55.7c6.1 0 11.6-2 16.2-5.2.5-.3.8-.7 1.3-.9 0-.2.1-.4.2-.4zM28 53C14.1 53 3 41.8 3 28S14.2 3 28 3s25 11.3 25 25c0 13.8-11.1 25-25 25z"/><linearGradient id="b" gradientUnits="userSpaceOnUse" x1="30.804" y1="10.661" x2="30.804" y2="45.604" gradientTransform="matrix(.9333 0 0 -.9333 .067 54.2)"><stop offset="0" stop-color="#e18c6b"/><stop offset="1" stop-color="#fff"/></linearGradient><path fill="url(#b)" d="M31 26.3h-4.7c-2 0-3.5-1.5-3.5-3.5s1.5-3.5 3.5-3.5h8c.8 0 1.5-.7 1.5-1.5s-.6-1.5-1.4-1.5h-4.2v-3.1c0-.8-.7-1.5-1.5-1.5s-1.5.7-1.5 1.5v3.1h-.7c-3.6 0-6.5 2.9-6.5 6.5s2.9 6.5 6.5 6.5h4.7c2 0 3.5 1.5 3.5 3.5s-1.5 3.5-3.5 3.5h-8.1c-.8 0-1.5.7-1.5 1.5s.7 1.5 1.5 1.5h4.3v3.3c0 .8.7 1.5 1.5 1.5s1.5-.7 1.5-1.5v-3.3h.7c3.6-.1 6.4-2.9 6.4-6.5.2-3.6-2.7-6.5-6.5-6.5z"/></svg>