<svg xmlns="http://www.w3.org/2000/svg" viewBox="0 0 40 40"><linearGradient id="a" gradientUnits="userSpaceOnUse" x1="631.8" y1="-999.459" x2="631.8" y2="271.859" gradientTransform="matrix(.03012 0 0 -.03012 .97 9.042)"><stop offset="0" stop-color="#50b09b"/><stop offset="1" stop-color="#e18c6b"/></linearGradient><path fill="url(#a)" d="M32.3 39.1H7.7c-3.8 0-6.8-3-6.8-6.8V7.7C.9 3.9 3.9.9 7.7.9h24.7c3.8 0 6.8 3 6.8 6.8v24.7c-.1 3.7-3.1 6.7-6.9 6.7z"/><path fill="none" stroke="#FFF" stroke-width="2" stroke-miterlimit="10" d="M25 13.6c0-2.3 1.9-4.1 4.1-3.9 2 .1 3.6 1.7 3.7 3.7.1 2.3-1.6 4.1-3.9 4.2h-.2c-2-.1-3.7-1.9-3.7-4zm-15.8-2c0-3 2.5-5.4 5.5-5.4 2.9 0 5.2 2.4 5.3 5.2.1 3-2.2 5.4-5.1 5.6h-.6c-2.9-.1-5.1-2.5-5.1-5.4zm17 17.8c0 1.9-1.6 3.5-3.5 3.5H7.9c-1.9 0-3.5-1.6-3.5-3.5v-.6c0-5.9 4.7-10.7 10.5-10.9h.6c5.8.2 10.5 5 10.5 10.9v.6zm.4-3.1c-.5-2-1.5-3.8-2.9-5.3 1.4-1.2 3.2-1.9 5.2-2h.2c4.1 0 7.6 3.2 8 7.2H26.6z"/></svg>