<svg width="70" height="20" fill="none" xmlns="http://www.w3.org/2000/svg"><path fill-rule="evenodd" clip-rule="evenodd" d="M8 1.966l-1.5 3.7s.9.1 1.5-.2c.4-.2 1-.7 1.2-1.3.2-.5.4-1.1.1-1.6-.2-.4-.4-.5-.8-.6-.4-.1-.5 0-.5 0zm3.5-1.2s1.2.4 1.4 1.8c.2 1.4-.6 2.9-1.7 3.5-1.1.6-1.9.7-2.7.7H6l-1.3 3.2s.5.5 0 .7l-4.1.1s-.2-.1-.1-.3c.1-.2 3.5-8.3 3.5-8.3s.4-.3 0-.6l-.4-.2c-.1-.2.1-.5.1-.5l7.8-.1zm22.6 4.4h1.7l-.5-2-1.2 2zm-.7 1.1s-2.1 3.4-2.2 3.6l-.1.2c.3.3-.1.3-.1.3h-1.6c-.2-.1-.1-.3.1-.4.2-.1.4-.5.4-.5l5.5-8.9s3.1-.1 3.3-.1c.2 0 .2.3.1.5s0 .3 0 .3 1.9 8 2 8.2c.1.2 0 .2.3.3.3.1.2.3.2.3.1-.2.5.5.6.7.1.2.6.2.9.3.3.1 1 0 1.7-.4s.6-1 .3-1.6c-.3-.6-1.6-1.9-2-2.6-.4-.6-1-2.4-.3-3.9s1.3-1.7 2.6-2.2c1.3-.5 2.2-.2 2.8-.1.6.1 1.1.4 1.4.5.3.1.3.1.6.3.3.2.1.5.1.5l-.3.9c-.1.3-.1.4-.3.3-.2 0-.1.1-.5-.5s-1-1.1-2.3-1.1c-1.3 0-1.5.9-1.4 1.6 0 .7 1.1 2 1.6 2.8.5.7 1.1 1.7 1.3 2.4.1.7-.1 1.5-.6 2.2-.5.7-1.8 1.3-2.3 1.4-.5.2-1.9.3-2.3.3-.4 0-1-.2-1.2-.3-.2-.1-.8 0-1.1 0-.3 0-.1-.5-.1-.5l.4-.9-4 .1c-.2-.1-.1-.3.1-.6s.1-.6.1-.6l-.8-2.9-2.9.1z" fill="#C74D44"/><path d="M13.9.866s-.4.4-.2.5c.2.1.5.1.4.5-.2.4-3.7 8.7-3.7 8.7s-.1.3.2.3c.3 0 8.8-.2 8.8-.2s.6-.5.6-1 .2-1-.4-.7c0 0-.1.3-.3.4l-4.5.1 1.6-3.8h2.4s.2 0 .2.2.1.4.3.4c.2 0 .4-.2.5-.7.1-.5.2-1.3-.3-1 0 0-.1.3-.3.3h-2.6l1.3-3.2 2.8-.1s.1-.1.3.1c0 0 .3.2.4 0 .1-.3.3-.6.3-.6s.3-.5-.3-.5c-.5 0-7 .1-7 .1l-.5.2z" fill="#C74D44"/><path d="M27.2 5.266l3.6-.1s.4.3 0 .7c0 0-.4.3-.5.5-.1.2-.5 1.6-.6 1.8-.1.2-.3 1.4-.6 1.9-.4.4-.3.4-.3.4h-2.1s.1-.5-.4-.2-1.5.7-2 .7-1.7-.3-2.2-.6c-.4-.3-1.1-.9-1.4-1.6-.3-.7-.4-2 .3-3.5.7-1.4 1.7-3.1 3.2-3.9 1.5-.8 2.5-1.1 3.8-1.1 1.2 0 1.7.1 2.2.2.5.2.7.3 1 .3.3 0 .6-.1.5.4-.2.5-.6 1-.8 1-.1 0-.1.1-.3-.1-.2-.2-.7-.8-1.1-.9-.5-.1-1.5-.1-2.2.2-.7.3-1.7 1.2-2.3 2.1-.6.9-1.2 2.1-1.4 3-.2.8-.4 1.9 0 2.4s1.1.5 1.4.4c.3-.1 1.3-.7 1.7-1.3.4-.6.7-1.5.8-1.7.1-.2.1-.3-.1-.5-.1-.1-.3-.2-.3-.4 0 .1.1-.1.1-.1zm24.3-4.6l3.6-.1s.6.1 0 .6c0 0-.1-.1-.4.7-.3.8-2.3 5.9-2.3 5.9s-.5 1.4.2 1.7c.6.3 1.3.1 1.7-.4.3-.5 3.6-8.5 3.6-8.5l3.8-.1s.5 0 .2.6c0 0-2 4.6-2.2 5-.2.4-1.2 2.7-2.5 3.5-1.3.7-2.4 1.2-3.6 1.3-1.4.1-2.9 0-4.1-1.1-1.1-1.1-.5-3.3-.1-4.1.3-.8 1.6-4.1 1.6-4.1s.1-.1 0-.3c-.1-.1-.1-.5.1-.6.2-.1.4 0 .4 0zm8.7 9.6s.1-.3.3-.4c.2-.2.1-.1.4.3.3.4.6.5.8.6.2.1 1.3.1 1.7 0 .4-.2.9-.6.9-1 0-.3 0-.8-.8-1.7-.9-1-1.9-2.4-1.9-3.6 0-1.2.5-3 1.9-3.7 1.3-.7 2.7-1.1 4.6-.4 1.9.7 1.2.5 1.3.6.1.1.3.2.1.5-.1.3-.2 1-.4 1.2-.1.2-.3.1-.5-.1s-.6-1-1.2-1.1c-.5-.1-1.2-.5-2.3 0-1.1.6-.1 2.5.3 2.9.4.4 1.8 2.4 1.9 2.9.1.5.5 2-.7 3-1.1 1-1.9 1.6-4.3 1.6 0 0-.7 0-1-.1-.3-.1-.3-.2-.6-.2h-.8c-.1 0-.3-.1-.2-.3.1-.3.5-1 .5-1z" fill="#C74D44"/><path fill-rule="evenodd" clip-rule="evenodd" d="M40 14.866h1.2l1.4 4.1h-1.1l-.3-.9h-1.4l-.3.9h-1l1.5-4.1zm.6.8l-.5 1.6h.9l-.4-1.6zm4.1-.8h1.8c.4 0 .6.1.8.3.2.2.4.4.4.8 0 .6-.2.9-.7 1 .1 0 .2.1.3.3 0 0 .1.2.2.6l.4 1.1h-1l-.2-.7c-.1-.4-.2-.6-.3-.7-.1-.1-.2-.2-.4-.2h-.2v1.6h-1v-4.1h-.1zm1 1.7h.3c.2 0 .4 0 .5-.1.2-.1.2-.2.2-.4 0-.3-.2-.5-.7-.5h-.3v1z" fill="#000"/><path d="M48.3 14.866h1v3.3h1.6v.8h-2.6v-4.1zm3.1 0h.9v4.1h-.9v-4.1zm1.7 0h1.3l1.2 2.8v-2.8h.9v4.1h-1.2l-1.3-2.8v2.8h-.9v-4.1zm4.1 0h2.6v.7h-1.6v.9h1.5v.8h-1.5v.9h1.7v.8h-2.7v-4.1zm3.3 3.1c.3.2.6.3 1 .3s.6-.1.6-.4c0-.2-.2-.4-.5-.5-.5-.2-.8-.3-.8-.4-.3-.2-.5-.5-.5-1s.2-.8.5-1c.3-.2.6-.3 1.1-.3.4 0 .7.1 1 .2l-.1.9c-.2-.1-.5-.2-.8-.2-.4 0-.7.1-.7.4 0 .2.2.3.5.4.5.2.7.3.8.3.3.2.5.5.5 1 0 .9-.5 1.4-1.6 1.4-.4 0-.8-.1-1.1-.2l.1-.9zm-17.5-3.1h1v4.1h-1v-4.1z" fill="#000"/><path d="M0 15.366h37.2" stroke="#C74D44" stroke-width="2.782" stroke-miterlimit="3.864"/></svg>