<svg xmlns="http://www.w3.org/2000/svg" viewBox="0 0 40 60"><linearGradient id="a" gradientUnits="userSpaceOnUse" x1="29.5" y1="-12.501" x2="29.5" y2="77.501" gradientTransform="matrix(.6667 0 0 -.6667 .333 51.667)"><stop offset="0" stop-color="#e18c6b"/><stop offset="1" stop-color="#fff"/></linearGradient><path fill="url(#a)" d="M20 0C9.2 0 .4 8.8.4 19.6.4 30 18.3 58.2 19 59.4c.2.4.6.6 1 .6s.8-.2 1-.6c.8-1.2 18.6-29.4 18.6-39.8C39.7 8.8 30.9 0 20 0zm0 56.5c-1.6-2.6-4.9-8-8.1-14C6 31.6 2.8 23.7 2.8 19.7c0-9.5 7.7-17.2 17.2-17.2s17.2 7.7 17.2 17.2c0 4-3.1 11.8-9.1 22.8-3.2 5.9-6.5 11.3-8.1 14z"/><linearGradient id="b" gradientUnits="userSpaceOnUse" x1="29.499" y1="36.384" x2="29.499" y2="63.528" gradientTransform="matrix(.6667 0 0 -.6667 .333 51.667)"><stop offset="0" stop-color="#e18c6b"/><stop offset="1" stop-color="#fff"/></linearGradient><path fill="url(#b)" d="M20 9.3c-5.1 0-9.3 4.1-9.3 9 0 5 4.2 9 9.3 9s9.3-4.1 9.3-9-4.1-9-9.3-9zM20 25c-3.8 0-6.9-3-6.9-6.6s3.1-6.6 6.9-6.6 6.9 3 6.9 6.6S23.8 25 20 25z"/></svg>