<svg width="10" height="10" fill="none" xmlns="http://www.w3.org/2000/svg"><path d="M8.223 10H1.777A1.781 1.781 0 0 1 0 8.223V1.777C0 .799.799 0 1.777 0h6.446C9.201 0 10 .799 10 1.777v6.446C10 9.215 9.201 10 8.223 10z" fill="url(#paint0_linear)"/><path d="M7.397 8.719H2.603c-.73 0-1.322-.592-1.322-1.322V2.603c0-.73.592-1.322 1.322-1.322h4.794c.73 0 1.322.592 1.322 1.322v4.794c0 .73-.592 1.322-1.322 1.322z" fill="#FEFEFF"/><defs><linearGradient id="paint0_linear" x1="1.904" y1="-.356" x2="8.089" y2="10.357" gradientUnits="userSpaceOnUse"><stop stop-color="#50B09B"/><stop offset="1" stop-color="#E49872"/></linearGradient></defs></svg>