<svg xmlns="http://www.w3.org/2000/svg" viewBox="0 0 58 60"><linearGradient id="a" gradientUnits="userSpaceOnUse" x1="24.165" y1="2.565" x2="24.165" y2="62.723" gradientTransform="matrix(.9667 0 0 -.9667 .033 60.967)"><stop offset="0" stop-color="#e18c6b"/><stop offset="1" stop-color="#fff"/></linearGradient><path fill="url(#a)" d="M38.1 41.1c1-.8.3-.4.5-.5l2-1.9c-1.3 1-2.2 2-2 1.9.3-.3 1.1-1 1.3-1.1 4.1-4.2 6.6-9.9 6.6-16.2C46.5 10.6 36.1.2 23.4.2S.3 10.7.3 23.4s10.4 23.1 23.1 23.1c5 0 9.7-1.6 13.5-4.4.4-.3.7-.6 1.1-.8-.1-.1 0-.2.1-.2zm-14.7 3.1c-11.5 0-20.8-9.3-20.8-20.8S11.9 2.6 23.4 2.6 44.2 12 44.2 23.4c0 11.5-9.3 20.8-20.8 20.8z"/><linearGradient id="b" gradientUnits="userSpaceOnUse" x1="45.644" y1="61.391" x2="45.644" y2="40.184"><stop offset="0" stop-color="#e18c6b"/><stop offset="1" stop-color="#fff"/></linearGradient><path fill="url(#b)" d="M53.6 54.7L39.1 40.2c-.1.1-1.3 1.2-1.8 1.5-.4.3 11.1 11.7 14.4 14.9.5.5 1.3.5 1.7 0l.1-.1c.6-.5.6-1.3.1-1.8z"/></svg>