<svg xmlns="http://www.w3.org/2000/svg" xmlns:xlink="http://www.w3.org/1999/xlink" viewBox="0 0 60 60"><defs><path id="a" transform="rotate(-89.985 26.81 28.283)" d="M-6.3-35.8h66.2V92.3H-6.3z"/></defs><clipPath id="b"><use xlink:href="#a" overflow="visible"/></clipPath><path clip-path="url(#b)" fill="#465684" d="M7.7 27.7c.4.3.8.5 1.2.7.5.2.9.3 1.4.3.5 0 .9-.1 1.3-.4.3-.2.4-.5.4-.9 0-.2-.1-.5-.1-.6 0-.2-.2-.3-.3-.5-.1-.1-.3-.3-.5-.4-.3-.1-.5-.3-.9-.4-.4-.2-.7-.4-1-.5-.3-.2-.6-.4-.8-.7-.2-.2-.3-.5-.5-.8-.1-.3-.1-.7-.1-1.1 0-.5.1-.9.2-1.2.2-.4.4-.7.7-.9.3-.2.6-.5 1-.6.5-.1.9-.2 1.4-.2.5 0 1 .1 1.4.2.4.1.8.3 1.1.5l-.3 1.7c-.3-.2-.7-.4-1-.6-.4-.1-.8-.2-1.2-.2-.5 0-.8.1-1.1.3-.3.2-.4.5-.4.8 0 .2 0 .4.1.5.1.1.2.3.3.4.1.1.3.2.5.3.2.1.4.2.7.4.4.2.7.4 1.1.5.4.2.6.4.9.6.2.3.4.5.5.8.2.3.2.7.2 1.2 0 1-.3 1.8-1 2.3-.6.6-1.5.8-2.7.8-.6 0-1.1 0-1.5-.2-.4-.1-.9-.3-1.2-.5l.2-1.6m7-5.2h1.8v5c0 .4.1.7.2.9.1.3.4.3.7.3.3 0 .5-.1.7-.3.2-.1.4-.4.5-.7v-5.2h1.8V30h-1.7v-.9c-.1.1-.1.2-.3.4-.1.1-.2.2-.4.3-.1.1-.3.2-.5.3-.2.1-.4.1-.7.1-.3 0-.7 0-1-.2-.3-.1-.5-.3-.7-.5-.2-.2-.3-.5-.4-.8-.1-.3-.1-.7-.1-1.1l.1-5.1m6.8 0h1.7v.9c0-.1.1-.2.3-.4.1-.1.2-.2.4-.3.1-.1.3-.2.5-.3.2-.1.4-.1.6-.1.8 0 1.3.2 1.7.7.3.5.5 1.1.5 1.9V30h-1.8v-5c0-.4-.1-.7-.2-.9-.1-.2-.4-.3-.7-.3-.3 0-.5.1-.7.3-.2.2-.4.4-.5.7v5.3h-1.7l-.1-7.6m6.9-2.9h5.5l-.1 1.6h-3.6v2.6h3v1.7h-3v2.9h3.9V30h-5.7V19.6M34.6 30c.2-.3.4-.7.6-1 .2-.3.3-.7.6-1 .1-.3.4-.6.6-.9.2-.3.3-.6.5-.9-.2-.3-.3-.6-.5-.9-.2-.3-.4-.7-.6-1-.2-.3-.3-.6-.5-.9-.1-.3-.3-.7-.5-.9h2l.5.9.3.6c.1.2.3.5.3.6.1-.2.3-.4.4-.6.1-.2.3-.5.4-.6 0-.2.1-.3.2-.4.1-.1.1-.3.2-.4H41c-.2.3-.4.6-.5.9-.2.3-.3.5-.5.9-.2.3-.4.6-.5.9-.2.3-.4.6-.5.8.2.3.4.6.5.9.2.4.4.7.6 1 .2.3.4.6.6 1 .2.3.3.7.6 1h-2l-.6-1-.7-1.3-.9 1.3c-.1.1-.2.3-.3.5l-.3.6-1.9-.1m7.2-7.4h1.8v.5c.2-.2.3-.4.6-.5.3-.2.5-.2.9-.2.8 0 1.5.3 2 1 .5.6.7 1.6.7 2.9 0 1.4-.2 2.3-.7 3-.5.7-1.1 1-1.9 1h-.6c-.2-.1-.3-.1-.5-.2l-.3-.3c-.1-.1-.2-.2-.2-.3v3.8h-1.8V22.6m1.8 5.5c.1.2.3.3.4.5.2.2.4.3.7.3.3 0 .7-.2.9-.6.3-.3.4-1 .4-1.9 0-.9-.1-1.5-.4-2-.3-.4-.6-.5-1-.5-.3 0-.5 0-.6.2-.2.1-.3.3-.4.4v3.6zm5-5.5h1.7v1.1c.1-.1.2-.3.3-.5.1-.2.2-.3.4-.4.1-.1.3-.2.5-.3.2-.1.4-.1.7-.1h.5l-.2 1.6c-.1 0-.1-.1-.2-.1h-.2c-.4 0-.7.1-1 .3-.3.1-.5.5-.7.9V30h-1.8v-7.4m9.6 6.9c-.2.2-.5.4-.9.5-.4.1-.8.2-1.4.2-.5 0-1-.1-1.4-.3-.4-.2-.7-.5-1.1-.8-.3-.3-.5-.8-.6-1.2-.2-.5-.3-1-.3-1.6 0-1.2.3-2.2.8-2.9.5-.7 1.2-1 2.1-1 .9 0 1.6.3 2 .9.5.6.7 1.4.7 2.4v.9h-3.8c0 .3.1.6.2.9.1.3.2.5.4.7.2.2.4.3.6.5.2.1.5.1.7.1.7 0 1.3-.2 1.8-.7l.2 1.4m-1.6-4.2c0-1.1-.4-1.7-1-1.7-.3 0-.6.1-.8.4-.2.3-.3.7-.4 1.3h2.2zm2.6 2.7c.3.2.5.3.9.5.4.1.7.2 1.1.2h.4c.1 0 .2-.1.3-.1.1 0 .1-.1.2-.2s.1-.2.1-.4c0-.3-.1-.5-.3-.7-.2-.2-.5-.3-.9-.5-.2-.1-.5-.2-.7-.4-.2-.1-.4-.3-.6-.5s-.3-.4-.4-.7c-.1-.3-.1-.5-.1-.9 0-.3.1-.6.2-.9.2-.3.4-.5.6-.7.2-.2.5-.4.8-.5.3-.1.7-.1 1-.1.4 0 .8 0 1.1.1l.9.3-.2 1.5c-.2-.2-.5-.3-.8-.4-.3-.1-.6-.2-.9-.2-.2 0-.5 0-.6.2-.2.1-.3.3-.3.6 0 .1.1.2.1.3 0 .1.1.2.2.3.1.1.2.2.4.3l.6.3c.2.1.4.2.7.4.2.1.4.3.6.5.2.2.3.4.4.7.1.2.1.5.1.9 0 .7-.2 1.3-.7 1.8-.5.4-1.1.6-2 .6-.4 0-.9 0-1.2-.1-.3-.1-.7-.2-1-.4V28m5.3.1c.3.2.6.3.9.5.4.1.7.2 1.1.2h.4c.1 0 .2-.1.3-.1.1 0 .2-.1.2-.2.1-.1.1-.2.1-.4 0-.3-.1-.5-.3-.7-.2-.2-.5-.3-.8-.5-.3-.1-.5-.2-.7-.4-.2-.1-.5-.3-.6-.5-.1-.2-.3-.4-.4-.7-.1-.3-.1-.5-.1-.9 0-.3.1-.6.2-.9.1-.3.3-.5.5-.7.3-.2.5-.4.9-.5.3-.1.6-.1.9-.1.5 0 .8 0 1.1.1l.9.3-.3 1.5c-.2-.2-.5-.3-.8-.4-.3-.1-.6-.2-.9-.2-.2 0-.4 0-.6.2-.2.1-.3.3-.3.6 0 .1.1.2.1.3.1.1.1.2.2.3.1.1.2.2.4.3l.6.3c.2.1.5.2.7.4.2.1.4.3.5.5.2.2.3.4.4.7.1.2.2.5.2.9 0 .7-.3 1.3-.8 1.8-.5.4-1.1.6-2 .6-.4 0-.9 0-1.2-.1-.3-.1-.7-.2-1-.4l.2-1.8m-74.5.4c-3.5.3-8.4 1.1-11.9.9.4.7.9 1.5 1.4 2.1.3.4.6.7.9 1.1 1.9 1.7 4.4 2.7 6.9 2.7s5-.9 6.9-2.6c.8-.7 1.4-1.5 1.9-2.3l.9-1.8c-1.6-.4-4.1-.3-7-.1m-8.4-12.3c-.1 0-.1 0-.2.1-.2.1-.3.3-.5.4-.1.1-.1.2 0 .3l1.7 3.1.1.1c.1 0 .1 0 0 0l-.1-.1-3-1.7c-.1 0-.2 0-.3.1-.1.2-.3.3-.4.5v.2c0 .1 0 .1.1.2l5.2 3h.1c.1 0 .1 0 .2-.1l.4-.4c.1 0 .1-.2.1-.3l-3-5.2c-.2-.2-.3-.2-.4-.2m14.2 2.9c0-.1 0-.1-.1-.2-.1-.2-.3-.4-.4-.5-.1-.1-.3-.1-.3-.1L-8 20l-.1.1h-.1l.2-.1 1.8-3.1c.1-.1.1-.2 0-.3-.2-.1-.4-.3-.6-.4 0-.1-.1-.1-.2-.1l-.1.1-3 5.2v.1c0 .1 0 .1.1.2l.4.4c.1.1.2.1.3.1l5.2-3c-.2 0-.1 0-.1-.1m-3.9-3.5l-.1-.1c-.2-.1-.4-.2-.7-.3-.1-.1-.2 0-.3.1l-1.8 3.1v.1-3.7c0-.1-.1-.2-.2-.2-.2 0-.5-.1-.7-.1-.1-.1-.1 0-.1.1-.1 0-.1.1-.1.2V21l.1.1c.2 0 .4 0 .5.1.2 0 .3 0 .3-.1l3-5.2c.1-.2.1-.3.1-.3m5.6 8.6c.1-.1.1-.1.1-.2 0-.2-.1-.5-.1-.7 0-.1-.1-.2-.2-.2h-3.6.1l3-1.8c.1-.1.1-.2.1-.3-.1-.2-.2-.5-.3-.6 0-.1-.1-.1-.1-.1h-.2l-5.2 3v.1c-.1 0-.1.1-.1.1.1.2.1.4.1.5.1.1.1.2.2.2h6c.1.1.2 0 .2 0m-19.3-4c-.1 0-.1 0-.1.1l-.3.6c-.1.1 0 .2.1.3l3 1.8h.1-3.7c-.1 0-.2.1-.2.2 0 .2-.1.5-.1.7 0 .1 0 .1.1.2 0 0 .1.1.2.1h6c.1 0 .1 0 .1-.1.1 0 .1-.1.1-.1 0-.2.1-.4.1-.5 0-.1-.1-.2-.1-.3l-5.2-3h-.1m8.5-5.7c-.1-.1-.1-.1-.2-.1-.2 0-.5.1-.7.1-.1 0-.2.1-.2.2v3.7-.1l-1.8-3.1c-.1-.1-.2-.1-.3-.1-.2.1-.5.2-.7.3-.1 0-.1.1-.1.1v.2l3 5.2c.1 0 .1.1.1.1h.2c.2-.1.4-.1.5-.1.1-.1.2-.1.2-.2v-6.2"/><path clip-path="url(#b)" fill="#D76643" d="M-3.1 25.6c-2.2 0-3.8.5-8.1 1.4-6 1.3-10.3.2-11.3.1-.1 0-.2 0-.2.2.1.5.5 1.6.7 2.1 3.5.2 8.4-.6 11.9-.9 2.9-.2 5.5-.3 7 0 .2-.7.4-1.5.5-2.2.2-.5.1-.7-.5-.7"/><path clip-path="url(#b)" fill="#D76643" d="M-22.7 26.3c.2.1 3 1 7.3 1.1 1.3 0 2.8-.2 3.8-.4-.5.1-1.5.2-2.8.2-2.5-.1-6.3-.9-8.1-1.7h-.2c0 .1-.1.1-.1.2.1.1.1.3.1.3-.2.2-.2.3 0 .3"/></svg>