<svg xmlns="http://www.w3.org/2000/svg" viewBox="0 0 46 55"><linearGradient id="a" gradientUnits="userSpaceOnUse" x1="29.391" y1="-10.995" x2="29.391" y2="60.721" gradientTransform="matrix(.7667 0 0 -.7667 .233 46.667)"><stop offset="0" stop-color="#da8c6e"/><stop offset="1" stop-color="#fff"/></linearGradient><path fill="url(#a)" d="M39.3 39.4L30.5 35c-.8-.5-1.4-1.3-1.4-2.2v-3.1c.2-.3.5-.5.6-.9 1.1-1.6 2-3.4 2.7-5.3 1.3-.5 2.1-1.8 2.1-3.3v-3.7c0-.9-.4-1.7-.9-2.4V9.3c.1-.5.3-3.5-1.9-6C30 1.2 26.8.1 22.7.1s-7.1 1.1-9.1 3.2c-2.2 2.5-1.9 5.5-1.9 6v4.9c-.5.6-.9 1.6-.9 2.4v3.7c0 1.1.5 2.2 1.4 2.8.8 3.3 2.6 5.9 3.2 6.6v3c0 .9-.5 1.7-1.3 2.1L6 39.2c-2.7 1.5-4.3 4.2-4.3 7.2v3.1c0 4.3 13.7 5.5 21.1 5.5s21.1-1.2 21.1-5.5v-2.7c-.1-3.2-1.8-6-4.6-7.4zM42 49.6c0 1.3-6.8 3.7-19.2 3.7S3.5 50.9 3.5 49.6v-2.9c0-2.4 1.3-4.5 3.4-5.7l8.2-4.5c1.4-.7 2.2-2.2 2.2-3.8V29l-.2-.3S14.8 26 14 22.2l-.1-.4-.3-.2c-.5-.4-.8-.9-.8-1.6v-3.7c0-.5.2-1 .6-1.4l.3-.3V9.2s-.3-2.6 1.5-4.6c1.5-1.7 4-2.7 7.6-2.7s6.1.9 7.7 2.6c1.7 2 1.5 4.6 1.5 4.6V15l.3.3c.4.4.6.8.6 1.4v3.7c0 .8-.5 1.5-1.3 1.7l-.5.2-.2.5c-.6 1.9-1.5 3.7-2.6 5.2-.3.4-.5.7-.7 1l-.2.3v3.8c0 1.6.9 3.1 2.4 3.8l8.8 4.4c2.2 1.1 3.6 3.3 3.6 5.8v2.7H42z"/></svg>