<svg width="112" height="67" fill="none" xmlns="http://www.w3.org/2000/svg"><rect x=".5" y=".5" width="111" height="66" rx="4.5" fill="#fff" stroke="#03C1A8"/><path d="M42.788 21L38.27 48.944h7.22L50.005 21h-7.217zm21.777 11.383c-2.523-1.239-4.07-2.075-4.07-3.342.031-1.151 1.308-2.332 4.16-2.332 2.346-.058 4.07.49 5.377 1.035l.656.29.981-5.846c-1.426-.548-3.687-1.151-6.48-1.151-7.13 0-12.15 3.685-12.18 8.955-.06 3.89 3.593 6.048 6.327 7.343 2.793 1.328 3.744 2.19 3.744 3.37-.03 1.81-2.258 2.647-4.337 2.647-2.88 0-4.427-.43-6.775-1.44l-.95-.43-1.01 6.075c1.696.75 4.815 1.41 8.052 1.443 7.577 0 12.507-3.63 12.57-9.246.024-3.082-1.903-5.442-6.065-7.371zm25.613-11.297h-5.585c-1.722 0-3.03.493-3.775 2.249L70.094 48.944h7.577l2.087-5.545h8.477l1.082 5.567H96l-5.822-27.88zm-8.32 16.718c.147.014 2.91-9.05 2.91-9.05l2.198 9.05H81.86zM32.239 21l-7.073 18.985-.771-3.744c-1.308-4.32-5.408-9.014-9.984-11.346l6.477 24.021h7.639l11.351-27.913h-7.639V21z" fill="#2394BC"/><path d="M22.015 24.606c-.552-2.131-2.31-3.568-4.697-3.599H6.115L6 21.524c8.739 2.142 16.073 8.732 18.453 14.931l-2.438-11.85z" fill="#EFC75E"/></svg>